<?xml version="1.0" encoding="utf-8"?>
<!-- Generator: Adobe Illustrator 17.1.0, SVG Export Plug-In . SVG Version: 6.00 Build 0)  -->
<!DOCTYPE svg PUBLIC "-//W3C//DTD SVG 1.1//EN" "http://www.w3.org/Graphics/SVG/1.1/DTD/svg11.dtd">
<svg version="1.1" id="Layer_1" xmlns="http://www.w3.org/2000/svg" xmlns:xlink="http://www.w3.org/1999/xlink" x="0px" y="0px"
	 viewBox="0 0 19.7 16.1" enable-background="new 0 0 19.7 16.1" xml:space="preserve">
<g enable-background="new    ">
	<path fill="#FFFFFF" d="M11.4,0v1.3h2.3c2.5,0,3.9,0.3,4.9,1.7c0.9,1.4,1.1,3.1,1.1,4.8c0,1.7-0.1,3.4-0.9,4.8
		c-1,1.6-2.5,1.9-4.5,1.9h-2.9v1.6h-3v-1.6H5.5c-2,0-3.5-0.3-4.5-1.9c-0.8-1.3-0.9-3.1-0.9-4.8c0-1.7,0.1-3.4,1.1-4.8
		c1-1.4,2.5-1.7,4.9-1.7h2.3V0H11.4z M8.3,3.8H6.6c-1.1,0-2.3,0.2-2.9,1.3c-0.2,0.3-0.4,1-0.4,2.8c0,1.8,0.2,2.5,0.3,2.8
		c0.6,1.4,2.3,1.5,3.4,1.5h1.4V3.8z M12.7,12.2c1.2,0,2.8,0,3.4-1.5c0.2-0.5,0.3-1.2,0.3-2.8c0-1.4-0.1-2.2-0.4-2.8
		c-0.6-1.2-1.8-1.3-2.9-1.3h-1.8v8.4H12.7z"/>
</g>
</svg>
